# Blender 4.5.3 LTS
# www.blender.org
o point_of_interest
v -0.000000 0.726074 -0.064767
v 0.205910 1.071684 -0.066904
v 0.061597 0.726074 -0.020014
v 0.127259 1.071684 0.175157
v 0.038069 0.726074 0.052397
v -0.000000 1.196684 -0.000000
v -0.127259 1.071684 0.175157
v -0.038069 0.726074 0.052397
v -0.205910 1.071684 -0.066904
v -0.061597 0.726074 -0.020014
v 0.000000 1.071684 -0.216506
v 0.000000 0.263390 0.000000
v 0.205910 0.821684 -0.066904
v 0.127259 0.821684 0.175157
v -0.127259 0.821684 0.175157
v -0.205910 0.821684 -0.066904
v -0.000000 0.821684 -0.216506
vn 0.5841 -0.1125 -0.8039
vn 0.5878 -0.0000 -0.8090
vn 0.3414 0.8140 -0.4700
vn 0.9450 -0.1125 0.3071
vn 0.9511 -0.0000 0.3090
vn 0.5525 0.8140 0.1795
vn -0.0000 -0.1125 0.9936
vn -0.0000 -0.0000 1.0000
vn -0.0000 0.8140 0.5809
vn -0.9450 -0.1125 0.3071
vn -0.9511 -0.0000 0.3090
vn -0.5525 0.8140 0.1795
vn -0.5841 -0.1125 -0.8039
vn -0.5878 -0.0000 -0.8090
vn -0.3414 0.8140 -0.4700
vn -0.3612 -0.7889 -0.4971
vn -0.5844 -0.7889 0.1899
vn -0.0000 -0.7889 0.6145
vn 0.5844 -0.7889 0.1899
vn 0.3612 -0.7889 -0.4971
vt 0.500000 0.000000
vt 0.600000 0.333333
vt 0.400000 0.333333
vt 0.600000 0.666667
vt 0.400000 0.666667
vt 0.500000 1.000000
vt 0.300000 0.000000
vt 0.200000 0.333333
vt 0.200000 0.666667
vt 0.300000 1.000000
vt 0.100000 0.000000
vt 0.000000 0.333333
vt 0.000000 0.666667
vt 0.100000 1.000000
vt 0.900000 0.000000
vt 1.000000 0.333333
vt 0.800000 0.333333
vt 1.000000 0.666667
vt 0.800000 0.666667
vt 0.800000 0.333333
vt 0.900000 1.000000
vt 0.700000 0.000000
vt 0.700000 1.000000
s 0
f 12/1/1 1/2/1 3/3/1
f 17/2/2 11/4/2 2/5/2 13/3/2
f 11/4/3 6/6/3 2/5/3
f 12/7/4 3/3/4 5/8/4
f 13/3/5 2/5/5 4/9/5 14/8/5
f 2/5/6 6/10/6 4/9/6
f 12/11/7 5/8/7 8/12/7
f 14/8/8 4/9/8 7/13/8 15/12/8
f 4/9/9 6/14/9 7/13/9
f 12/15/10 8/16/10 10/17/10
f 15/16/11 7/18/11 9/19/11 16/20/11
f 7/18/12 6/21/12 9/19/12
f 12/22/13 10/17/13 1/2/13
f 16/20/14 9/19/14 11/4/14 17/2/14
f 9/19/15 6/23/15 11/4/15
f 10/17/16 16/20/16 17/2/16 1/2/16
f 8/16/17 15/16/17 16/20/17 10/17/17
f 5/8/18 14/8/18 15/12/18 8/12/18
f 3/3/19 13/3/19 14/8/19 5/8/19
f 1/2/20 17/2/20 13/3/20 3/3/20
