# Blender 4.5.3 LTS
# www.blender.org
o spawn_walk_in
v 0.378115 0.000000 0.181716
v 0.309355 0.075158 0.212060
v 0.240595 0.000000 0.242403
v 0.309355 -0.075158 0.212060
v 0.182701 0.000000 -0.176030
v 0.140942 0.042833 -0.166499
v 0.099182 0.000000 -0.156968
v 0.140942 -0.042833 -0.166499
v 0.097670 0.000000 -0.405486
v 0.000000 0.000000 0.700000
v 0.000000 0.085000 0.615000
v 0.000000 0.000000 0.530000
v 0.000000 -0.085000 0.615000
v 0.200000 0.000000 0.425499
v 0.538836 0.000000 0.370813
v 0.460021 0.085000 0.402641
v 0.381205 0.000000 0.434470
v 0.460021 -0.085000 0.402641
v 0.505336 0.000000 0.504258
v 0.285433 0.000000 0.022137
v 0.224462 0.064854 0.043378
v 0.163490 0.000000 0.064619
v 0.224462 -0.064854 0.043378
v -0.378115 0.000000 0.181716
v -0.309355 0.075158 0.212060
v -0.240595 0.000000 0.242403
v -0.309355 -0.075158 0.212060
v -0.182701 0.000000 -0.176030
v -0.140942 0.042833 -0.166499
v -0.099182 0.000000 -0.156967
v -0.140942 -0.042833 -0.166499
v -0.097670 0.000000 -0.405486
v -0.200000 0.000000 0.425499
v -0.538836 0.000000 0.370813
v -0.460020 0.085000 0.402641
v -0.381205 0.000000 0.434470
v -0.460020 -0.085000 0.402641
v -0.505336 0.000000 0.504258
v -0.285433 0.000000 0.022137
v -0.224462 0.064854 0.043378
v -0.163490 0.000000 0.064619
v -0.224462 -0.064854 0.043378
vn 0.5509 0.6899 -0.4697
vn 0.5822 0.6971 -0.4185
vn 0.5866 0.6980 -0.4107
vn -0.4970 0.6691 0.5525
vn -0.6130 0.7034 0.3598
vn -0.6178 0.7040 0.3503
vn -0.5108 0.6747 0.5329
vn -0.5108 -0.6747 0.5329
vn -0.6178 -0.7040 0.3503
vn -0.6130 -0.7034 0.3598
vn -0.4970 -0.6691 0.5525
vn 0.5509 -0.6899 -0.4697
vn 0.5866 -0.6980 -0.4107
vn 0.5822 -0.6971 -0.4185
vn 0.6253 0.7011 -0.3427
vn 0.6498 0.7023 -0.2909
vn 0.6505 0.7024 -0.2891
vn 0.6260 0.7010 -0.3416
vn -0.6646 0.7065 0.2433
vn -0.7000 0.7058 0.1093
vn -0.7008 0.7056 0.1050
vn -0.6658 0.7065 0.2400
vn -0.6658 -0.7065 0.2400
vn -0.7008 -0.7056 0.1050
vn -0.7000 -0.7058 0.1093
vn -0.6646 -0.7065 0.2433
vn 0.6260 -0.7010 -0.3416
vn 0.6505 -0.7024 -0.2891
vn 0.6498 -0.7023 -0.2909
vn 0.6253 -0.7011 -0.3427
vn 0.6659 0.7041 -0.2468
vn -0.7155 0.6986 0.0044
vn -0.7155 -0.6986 0.0044
vn 0.6659 -0.7041 -0.2468
vn 0.6964 0.5074 0.5074
vn 0.6964 -0.5074 0.5074
vn -0.3466 0.6633 -0.6633
vn -0.3466 -0.6633 -0.6633
vn 0.7544 -0.6286 0.1894
vn 0.7544 0.6286 0.1894
vn -0.3863 -0.6154 0.6871
vn -0.3863 0.6154 0.6871
vn -0.5509 0.6899 -0.4697
vn -0.5866 0.6980 -0.4107
vn -0.5822 0.6971 -0.4185
vn 0.4970 0.6691 0.5525
vn 0.5108 0.6747 0.5329
vn 0.6178 0.7040 0.3503
vn 0.6130 0.7034 0.3598
vn 0.5108 -0.6747 0.5329
vn 0.4970 -0.6691 0.5525
vn 0.6130 -0.7034 0.3598
vn 0.6178 -0.7040 0.3503
vn -0.5509 -0.6899 -0.4697
vn -0.5822 -0.6971 -0.4185
vn -0.5866 -0.6980 -0.4107
vn -0.6253 0.7011 -0.3427
vn -0.6260 0.7010 -0.3416
vn -0.6505 0.7024 -0.2891
vn -0.6498 0.7023 -0.2909
vn 0.6646 0.7065 0.2433
vn 0.6658 0.7065 0.2400
vn 0.7008 0.7056 0.1050
vn 0.7000 0.7058 0.1093
vn 0.6658 -0.7065 0.2400
vn 0.6646 -0.7065 0.2433
vn 0.7000 -0.7058 0.1093
vn 0.7008 -0.7056 0.1050
vn -0.6260 -0.7010 -0.3416
vn -0.6253 -0.7011 -0.3427
vn -0.6498 -0.7023 -0.2909
vn -0.6505 -0.7024 -0.2891
vn -0.6659 0.7041 -0.2468
vn 0.7155 0.6986 0.0044
vn 0.7155 -0.6986 0.0044
vn -0.6659 -0.7041 -0.2468
vn -0.6964 0.5074 0.5074
vn -0.6964 -0.5074 0.5074
vn 0.3466 0.6633 -0.6633
vn 0.3466 -0.6633 -0.6633
vn -0.7544 -0.6286 0.1894
vn -0.7544 0.6286 0.1894
vn 0.3863 -0.6154 0.6871
vn 0.3863 0.6154 0.6871
vt 0.571429 0.500000
vt 0.714286 0.500000
vt 0.714286 0.750000
vt 0.571429 0.750000
vt 0.714286 1.000000
vt 0.571429 1.000000
vt 0.571429 0.000000
vt 0.714286 0.000000
vt 0.714286 0.250000
vt 0.571429 0.250000
vt 0.785714 0.500000
vt 0.857143 0.500000
vt 0.857143 0.750000
vt 0.785714 0.750000
vt 0.857143 1.000000
vt 0.785714 1.000000
vt 0.785714 0.000000
vt 0.857143 0.000000
vt 0.857143 0.250000
vt 0.785714 0.250000
vt 1.000000 0.750000
vt 1.000000 1.000000
vt 1.000000 0.250000
vt 1.000000 0.500000
vt 0.000000 0.000000
s 1
f 15/1/1 1/2/2 2/3/3 16/4/1
f 16/4/4 2/3/5 3/5/6 17/6/7
f 17/7/8 3/8/9 4/9/10 18/10/11
f 18/10/12 4/9/13 1/2/14 15/1/12
f 20/11/15 5/12/16 6/13/17 21/14/18
f 21/14/19 6/13/20 7/15/21 22/16/22
f 22/17/23 7/18/24 8/19/25 23/20/26
f 23/20/27 8/19/28 5/12/29 20/11/30
f 5/12/16 9/21/31 6/13/17
f 6/13/20 9/22/32 7/15/21
f 7/18/24 9/23/33 8/19/25
f 8/19/28 9/24/34 5/12/29
f 10/25/35 14/25/35 11/25/35
f 10/25/36 13/25/36 14/25/36
f 11/25/37 14/25/37 12/25/37
f 12/25/38 14/25/38 13/25/38
f 18/10/39 15/1/39 19/10/39
f 15/1/40 16/4/40 19/1/40
f 17/7/8 18/10/11 19/7/41
f 16/4/4 17/6/7 19/4/42
f 4/9/13 23/20/27 20/11/30 1/2/14
f 3/8/9 22/17/23 23/20/26 4/9/10
f 2/3/5 21/14/19 22/16/22 3/5/6
f 1/2/2 20/11/15 21/14/18 2/3/3
f 34/1/43 35/4/43 25/3/44 24/2/45
f 35/4/46 36/6/47 26/5/48 25/3/49
f 36/7/50 37/10/51 27/9/52 26/8/53
f 37/10/54 34/1/54 24/2/55 27/9/56
f 39/11/57 40/14/58 29/13/59 28/12/60
f 40/14/61 41/16/62 30/15/63 29/13/64
f 41/17/65 42/20/66 31/19/67 30/18/68
f 42/20/69 39/11/70 28/12/71 31/19/72
f 28/12/60 29/13/59 32/21/73
f 29/13/64 30/15/63 32/22/74
f 30/18/68 31/19/67 32/23/75
f 31/19/72 28/12/71 32/24/76
f 10/25/77 11/25/77 33/25/77
f 10/25/78 33/25/78 13/25/78
f 11/25/79 12/25/79 33/25/79
f 12/25/80 13/25/80 33/25/80
f 37/10/81 38/10/81 34/1/81
f 34/1/82 38/1/82 35/4/82
f 36/7/50 38/7/83 37/10/51
f 35/4/46 38/4/84 36/6/47
f 27/9/56 24/2/55 39/11/70 42/20/69
f 26/8/53 27/9/52 42/20/66 41/17/65
f 25/3/49 26/5/48 41/16/62 40/14/61
f 24/2/45 25/3/44 40/14/58 39/11/57
