# Blender 4.5.3 LTS
# www.blender.org
o Cube.001
v 0.000000 0.041169 0.000000
v 0.261983 0.130992 -0.000171
v 0.392975 0.392975 0.000000
v 0.327479 0.654959 0.000000
v 0.251350 0.410528 -0.279152
v -0.000021 0.051748 0.000122
v 0.166238 0.142008 -0.187233
v 0.209444 0.679048 -0.232611
v -0.037629 0.428519 -0.357122
v 0.000062 0.062678 0.000212
v -0.029839 0.153300 -0.237463
v -0.031369 0.703738 -0.297566
v -0.277928 0.446959 -0.201662
v -0.190420 0.164874 -0.126955
v 0.000184 0.073972 0.000205
v -0.231603 0.729044 -0.168005
v 0.000260 0.085643 0.000110
v -0.321208 0.465859 0.068560
v -0.210651 0.176740 0.059665
v -0.267652 0.754982 0.057176
v -0.156881 0.485230 0.272208
v 0.000241 0.097703 -0.000004
v -0.086322 0.189129 0.190835
v -0.130704 0.781566 0.226868
v 0.092969 0.505085 0.285737
v 0.000151 0.110166 -0.000060
v 0.087321 0.202154 0.180255
v 0.077499 0.808814 0.238126
v 0.000063 0.123046 -0.000027
v 0.186038 0.215786 0.045035
v 0.262442 0.525435 0.116851
v 0.218695 0.836878 0.097373
v 0.000043 0.136356 0.000056
v 0.145227 0.230301 -0.111022
v 0.250784 0.546959 -0.111597
v 0.206096 0.890165 -0.091701
v 0.079905 0.597890 -0.245919
v 0.000102 0.150113 0.000118
v 0.003633 0.251494 -0.174070
v 0.064172 0.981577 -0.197497
v -0.119512 0.687299 -0.206776
v -0.124822 0.291725 -0.107247
v 0.000192 0.164330 0.000105
v -0.093546 1.104351 -0.161814
v -0.212049 0.806434 -0.044867
v 0.000243 0.179024 0.000024
v -0.153202 0.353406 0.017236
v -0.160741 1.252458 -0.033980
v -0.156644 0.944723 0.114057
v 0.000220 0.194210 -0.000068
v -0.092902 0.422748 0.109898
v -0.111163 1.420532 0.085995
v 0.000145 0.209906 -0.000110
v 0.007824 1.087734 0.171403
v 0.042435 0.490307 0.127434
v -0.010223 1.603801 0.115768
v 0.000078 0.225859 -0.000084
v 0.151982 1.214015 0.011695
v 0.124938 0.549463 -0.013779
v 0.085853 1.798033 0.032488
v 0.000064 0.584900 -0.118860
v 0.000047 1.401982 -0.117934
v 0.000069 0.241547 -0.000027
v 0.000029 1.999478 0.000000
vn 0.2800 -0.9267 -0.2505
vn 0.6426 -0.6597 -0.3896
vn 0.8854 -0.1002 -0.4539
vn 0.8778 0.2153 -0.4279
vn 0.6282 -0.0960 -0.7721
vn 0.1710 -0.9353 -0.3099
vn 0.4130 -0.6880 -0.5967
vn 0.6048 0.2265 -0.7635
vn -0.1548 -0.0914 -0.9837
vn -0.1247 -0.9292 -0.3480
vn -0.1781 -0.6729 -0.7180
vn -0.1648 0.2120 -0.9633
vn -0.8361 -0.0867 -0.5417
vn -0.6701 -0.6578 -0.3439
vn -0.3593 -0.9227 -0.1400
vn -0.8295 0.1983 -0.5221
vn -0.3542 -0.9157 0.1897
vn -0.9616 -0.0820 0.2619
vn -0.7101 -0.6429 0.2872
vn -0.9449 0.1855 0.2697
vn -0.4453 -0.0773 0.8920
vn -0.0866 -0.9079 0.4102
vn -0.2470 -0.6279 0.7381
vn -0.4309 0.1734 0.8856
vn 0.3699 -0.0728 0.9262
vn 0.2715 -0.8989 0.3439
vn 0.4098 -0.6128 0.6757
vn 0.3727 0.1620 0.9137
vn 0.4583 -0.8887 0.0093
vn 0.7924 -0.5977 0.1218
vn 0.9383 -0.0688 0.3388
vn 0.9357 0.1507 0.3190
vn 0.3032 -0.8755 -0.3762
vn 0.5971 -0.5806 -0.5535
vn 0.8709 -0.0686 -0.4866
vn 0.8439 0.1393 -0.5181
vn 0.1920 -0.0501 -0.9801
vn -0.1542 -0.8417 -0.5174
vn -0.0942 -0.5457 -0.8327
vn 0.1316 0.1288 -0.9829
vn -0.6189 -0.0210 -0.7852
vn -0.7610 -0.4719 -0.4452
vn -0.6175 -0.7539 -0.2241
vn -0.6757 0.1199 -0.7274
vn -0.9982 0.0033 -0.0597
vn -0.7022 -0.6205 0.3492
vn -0.8816 -0.3704 0.2927
vn -0.9919 0.1138 0.0561
vn -0.6974 0.0194 0.7164
vn -0.3450 -0.4997 0.7946
vn -0.4378 -0.2740 0.8563
vn -0.5541 0.0977 0.8267
vn 0.2550 -0.4171 0.8724
vn 0.2410 0.0313 0.9700
vn 0.4591 -0.2177 0.8613
vn 0.5076 0.0844 0.8575
vn 0.9146 -0.3299 0.2337
vn 0.9979 0.0520 -0.0384
vn 0.9672 -0.1762 -0.1829
vn 0.8401 0.1390 -0.5243
vn 0.6176 -0.1023 -0.7798
vn 0.6784 0.0899 -0.7292
vn 0.5565 -0.2609 -0.7888
vn 0.6882 0.1225 -0.7151
vt 0.009249 0.289403
vt 0.078148 0.289403
vt 0.078148 0.654420
vt 0.009249 0.654419
vt 0.078148 0.958508
vt 0.009249 0.958508
vt 0.009249 0.018485
vt 0.078148 0.018485
vt 0.134914 0.289403
vt 0.134914 0.654420
vt 0.134914 0.958508
vt 0.134914 0.018485
vt 0.188358 0.289403
vt 0.188358 0.654420
vt 0.188358 0.958508
vt 0.188358 0.018485
vt 0.248610 0.289403
vt 0.248610 0.654420
vt 0.248610 0.958508
vt 0.248610 0.018485
vt 0.319286 0.289403
vt 0.319286 0.654420
vt 0.319286 0.958508
vt 0.319286 0.018485
vt 0.385133 0.289403
vt 0.385133 0.654420
vt 0.385133 0.958508
vt 0.385133 0.018485
vt 0.440219 0.289403
vt 0.440219 0.654420
vt 0.440219 0.958508
vt 0.440219 0.018485
vt 0.519539 0.289403
vt 0.519539 0.654420
vt 0.519539 0.958508
vt 0.519539 0.018485
vt 0.600183 0.289403
vt 0.600183 0.654420
vt 0.600183 0.958508
vt 0.600183 0.018485
vt 0.678244 0.289403
vt 0.678244 0.654420
vt 0.678244 0.958508
vt 0.678244 0.018485
vt 0.751677 0.289403
vt 0.751677 0.654420
vt 0.751677 0.958508
vt 0.751677 0.018485
vt 0.818432 0.289403
vt 0.818432 0.654420
vt 0.818432 0.958508
vt 0.818432 0.018485
vt 0.870384 0.289403
vt 0.870384 0.654420
vt 0.870384 0.958508
vt 0.870384 0.018485
vt 0.921865 0.289403
vt 0.921865 0.654420
vt 0.921865 0.958508
vt 0.921865 0.018485
vt 0.990473 0.289403
vt 0.990473 0.654420
vt 0.990473 0.018485
vt 0.990473 0.958508
s 1
f 62/1/62 58/2/58 59/3/59 61/4/61
f 61/4/61 59/3/59 57/5/57 63/6/63
f 64/7/64 60/8/60 58/2/58 62/1/62
f 58/2/58 54/9/54 55/10/55 59/3/59
f 59/3/59 55/10/55 53/11/53 57/5/57
f 60/8/60 56/12/56 54/9/54 58/2/58
f 54/9/54 49/13/49 51/14/51 55/10/55
f 55/10/55 51/14/51 50/15/50 53/11/53
f 56/12/56 52/16/52 49/13/49 54/9/54
f 49/13/49 45/17/45 47/18/47 51/14/51
f 51/14/51 47/18/47 46/19/46 50/15/50
f 52/16/52 48/20/48 45/17/45 49/13/49
f 45/17/45 41/21/41 42/22/42 47/18/47
f 47/18/47 42/22/42 43/23/43 46/19/46
f 48/20/48 44/24/44 41/21/41 45/17/45
f 41/21/41 37/25/37 39/26/39 42/22/42
f 42/22/42 39/26/39 38/27/38 43/23/43
f 44/24/44 40/28/40 37/25/37 41/21/41
f 37/25/37 35/29/35 34/30/34 39/26/39
f 39/26/39 34/30/34 33/31/33 38/27/38
f 40/28/40 36/32/36 35/29/35 37/25/37
f 35/29/35 31/33/31 30/34/30 34/30/34
f 34/30/34 30/34/30 29/35/29 33/31/33
f 36/32/36 32/36/32 31/33/31 35/29/35
f 31/33/31 25/37/25 27/38/27 30/34/30
f 30/34/30 27/38/27 26/39/26 29/35/29
f 32/36/32 28/40/28 25/37/25 31/33/31
f 25/37/25 21/41/21 23/42/23 27/38/27
f 27/38/27 23/42/23 22/43/22 26/39/26
f 28/40/28 24/44/24 21/41/21 25/37/25
f 21/41/21 18/45/18 19/46/19 23/42/23
f 23/42/23 19/46/19 17/47/17 22/43/22
f 24/44/24 20/48/20 18/45/18 21/41/21
f 18/45/18 13/49/13 14/50/14 19/46/19
f 19/46/19 14/50/14 15/51/15 17/47/17
f 20/48/20 16/52/16 13/49/13 18/45/18
f 13/49/13 9/53/9 11/54/11 14/50/14
f 14/50/14 11/54/11 10/55/10 15/51/15
f 16/52/16 12/56/12 9/53/9 13/49/13
f 9/53/9 5/57/5 7/58/7 11/54/11
f 11/54/11 7/58/7 6/59/6 10/55/10
f 12/56/12 8/60/8 5/57/5 9/53/9
f 7/58/7 5/57/5 3/61/3 2/62/2
f 5/57/5 8/60/8 4/63/4 3/61/3
f 6/59/6 7/58/7 2/62/2 1/64/1
